<?xml version="1.0" standalone="no"?>
<!DOCTYPE svg PUBLIC "-//W3C//DTD SVG 20010904//EN"
 "http://www.w3.org/TR/2001/REC-SVG-20010904/DTD/svg10.dtd">
<svg version="1.0" xmlns="http://www.w3.org/2000/svg"
 width="270.000000pt" height="186.000000pt" viewBox="0 0 270.000000 186.000000"
 preserveAspectRatio="xMidYMid meet">

<g transform="translate(0.000000,186.000000) scale(0.100000,-0.100000)"
fill="#000000" stroke="none">
<path d="M1370 1361 c-8 -6 -17 -8 -21 -5 -4 2 -25 -13 -47 -34 -57 -54 -67
-98 -66 -272 0 -153 11 -212 44 -248 l20 -22 -26 -6 c-19 -5 -23 -9 -14 -18
12 -12 323 -22 363 -12 22 5 22 8 19 163 -2 90 -8 163 -14 170 -7 9 -40 13
-100 13 l-89 0 3 -52 c3 -50 5 -53 33 -58 28 -5 30 -8 32 -53 2 -44 0 -49 -25
-58 -15 -6 -41 -8 -59 -4 -55 10 -66 45 -65 205 2 193 16 220 113 211 19 -1
39 -41 39 -76 0 -24 3 -25 65 -25 l65 0 0 36 c0 19 -4 33 -9 30 -5 -4 -7 2 -4
12 6 24 -34 74 -56 68 -9 -3 -23 -1 -31 5 -12 8 -9 9 9 4 15 -5 21 -4 17 4
-16 26 -163 42 -196 22z m80 -5 c0 -3 -4 -8 -10 -11 -5 -3 -10 -1 -10 4 0 6 5
11 10 11 6 0 10 -2 10 -4z m77 -42 c-3 -3 -12 -4 -19 -1 -8 3 -5 6 6 6 11 1
17 -2 13 -5z"/>
<path d="M204 1243 c3 -60 9 -197 13 -305 l6 -198 158 0 c199 0 209 4 209 77
l0 53 -84 0 c-47 0 -87 4 -90 8 -2 4 -7 75 -11 157 -3 83 -8 187 -11 233 l-6
82 -95 0 -96 0 7 -107z"/>
<path d="M1748 1058 c-4 -191 -2 -297 4 -305 11 -14 116 -18 133 -5 6 4 11
108 13 272 2 146 5 280 9 298 l5 32 -79 0 -80 0 -5 -292z"/>
<path d="M1989 1238 c-1 -62 -4 -193 -8 -292 -3 -98 -3 -182 0 -187 10 -16 74
-22 154 -14 45 4 73 11 69 17 -3 5 -12 7 -20 4 -37 -14 -44 3 -43 108 0 55 3
119 7 141 7 39 8 38 52 -93 39 -113 43 -134 30 -142 -12 -7 -12 -12 -2 -22 9
-9 52 -14 131 -16 l118 -4 7 204 c4 112 9 249 12 306 l5 102 -96 0 -95 0 0
-114 c0 -63 -4 -117 -8 -120 -5 -3 -17 21 -27 52 -11 31 -26 73 -34 92 -8 19
-16 41 -17 48 -8 41 -11 42 -124 42 l-110 0 -1 -112z m228 -40 c-3 -8 -6 -5
-6 6 -1 11 2 17 5 13 3 -3 4 -12 1 -19z m31 -23 c-3 -3 -9 2 -12 12 -6 14 -5
15 5 6 7 -7 10 -15 7 -18z"/>
<path d="M607 1178 c-27 -65 -37 -103 -32 -128 13 -68 19 -89 41 -132 22 -43
71 -91 137 -132 15 -9 25 -21 22 -26 -9 -15 29 -19 197 -22 130 -2 152 -1 125
9 -17 6 -42 12 -54 12 -30 1 -41 22 -18 35 11 6 47 37 81 69 68 64 94 121 94
208 0 44 -21 119 -34 119 -2 0 -3 -22 0 -50 3 -44 1 -50 -15 -50 -10 0 -26 10
-34 23 -15 21 -16 17 -18 -68 -1 -49 -4 -74 -6 -54 -4 32 -7 36 -29 31 -14 -2
-24 0 -24 7 0 7 6 11 13 10 23 -3 37 1 37 11 0 6 -13 9 -30 8 -16 -1 -30 -7
-30 -13 0 -5 -4 -3 -10 5 -5 8 -13 11 -17 6 -4 -4 2 -15 15 -23 21 -15 31 -53
14 -53 -4 0 -19 -25 -32 -55 -18 -41 -26 -51 -31 -38 -5 16 -7 16 -17 -4 -7
-12 -28 -31 -47 -43 -19 -12 -35 -28 -35 -36 0 -8 -4 -14 -10 -14 -15 0 -30
36 -30 74 0 22 -5 36 -12 37 -7 0 -4 4 7 8 18 7 18 9 -8 26 -15 9 -27 23 -27
29 0 7 -11 23 -25 36 l-25 23 0 -22 c0 -14 4 -20 11 -15 8 5 8 1 0 -14 -17
-32 -13 -52 12 -62 17 -7 18 -9 4 -9 -13 -1 -16 -7 -12 -28 l5 -28 -12 26 c-8
19 -23 30 -52 38 l-41 10 39 -4 c38 -4 38 -4 32 27 -3 17 -6 34 -6 39 0 5 -18
9 -40 9 -38 0 -54 -13 -27 -23 7 -4 6 -6 -5 -6 -12 -1 -18 11 -24 42 -9 51 -5
126 7 149 6 11 5 18 -4 21 -9 4 -9 6 1 6 6 1 12 8 12 16 0 26 -19 16 -33 -17z
m90 -234 c-3 -3 -12 -4 -19 -1 -8 3 -5 6 6 6 11 1 17 -2 13 -5z m100 -46 c-3
-8 -6 -5 -6 6 -1 11 2 17 5 13 3 -3 4 -12 1 -19z"/>
<path d="M1091 1174 c0 -11 3 -14 6 -6 3 7 2 16 -1 19 -3 4 -6 -2 -5 -13z"/>
<path d="M740 1040 c0 -5 7 -7 15 -4 8 4 15 8 15 10 0 2 -7 4 -15 4 -8 0 -15
-4 -15 -10z"/>
<path d="M653 1013 c9 -2 25 -2 35 0 9 3 1 5 -18 5 -19 0 -27 -2 -17 -5z"/>
<path d="M1150 720 c8 -5 20 -10 25 -10 6 0 3 5 -5 10 -8 5 -19 10 -25 10 -5
0 -3 -5 5 -10z"/>
<path d="M1498 487 c-16 -13 -28 -27 -28 -32 0 -4 10 1 23 12 12 11 31 25 42
31 14 8 15 11 5 11 -8 0 -27 -10 -42 -22z"/>
</g>
</svg>
