<?xml version="1.0" standalone="no"?>
<!DOCTYPE svg PUBLIC "-//W3C//DTD SVG 20010904//EN"
 "http://www.w3.org/TR/2001/REC-SVG-20010904/DTD/svg10.dtd">
<svg version="1.0" xmlns="http://www.w3.org/2000/svg"
 width="225.000000pt" height="225.000000pt" viewBox="0 0 225.000000 225.000000"
 preserveAspectRatio="xMidYMid meet">

<g transform="translate(0.000000,225.000000) scale(0.100000,-0.100000)"
fill="#000000" stroke="none">
<path d="M885 1491 c-70 -20 -130 -54 -181 -106 -36 -36 -54 -61 -50 -71 3 -8
2 -13 -3 -9 -5 3 -19 -21 -31 -52 -33 -88 -26 -207 18 -296 38 -77 102 -138
182 -175 45 -21 71 -26 145 -26 113 -1 182 24 259 95 l54 49 121 0 c67 0 121
-4 121 -8 0 -23 -78 -134 -133 -190 -107 -108 -259 -172 -414 -172 -116 0
-167 15 -337 98 -4 2 103 -107 238 -243 135 -136 246 -249 246 -252 0 -2 -154
-2 -342 0 -298 3 -349 6 -388 21 -80 31 -124 59 -172 110 -27 27 -48 43 -48
37 0 -23 -18 -1 -25 30 -5 20 -10 28 -17 21 -28 -28 96 -184 183 -231 99 -52
83 -51 829 -51 l696 0 63 25 c35 15 75 34 90 43 28 18 105 92 108 105 4 16 22
42 23 32 1 -15 30 63 46 125 16 66 20 745 4 770 -6 10 -10 -45 -10 -164 l0
-178 -144 145 c-83 84 -146 140 -148 132 -4 -16 -246 -245 -259 -245 -5 0 -9
31 -9 70 l0 70 -217 2 -218 3 -3 113 -3 112 221 0 220 0 0 53 c0 51 -1 53 -76
127 l-76 75 36 -60 c20 -33 36 -65 36 -71 0 -19 -27 -24 -133 -24 l-102 0 -41
48 c-61 71 -156 115 -254 118 -41 2 -88 -1 -105 -5z m-672 -1245 c4 -10 1 -13
-9 -9 -7 3 -14 9 -14 14 0 14 17 10 23 -5z"/>
<path d="M93 520 c0 -30 2 -43 4 -27 2 15 2 39 0 55 -2 15 -4 2 -4 -28z"/>
</g>
</svg>
