<?xml version="1.0" standalone="no"?>
<!DOCTYPE svg PUBLIC "-//W3C//DTD SVG 20010904//EN"
 "http://www.w3.org/TR/2001/REC-SVG-20010904/DTD/svg10.dtd">
<svg version="1.0" xmlns="http://www.w3.org/2000/svg"
 width="225.000000pt" height="225.000000pt" viewBox="0 0 225.000000 225.000000"
 preserveAspectRatio="xMidYMid meet">

<g transform="translate(0.000000,225.000000) scale(0.100000,-0.100000)"
fill="#000000" stroke="none">
<path d="M1040 2243 c-451 -40 -821 -325 -973 -750 -80 -222 -80 -514 0 -736
140 -390 469 -668 873 -737 96 -17 274 -17 370 0 411 70 751 363 879 756 39
121 54 219 54 349 0 480 -293 894 -750 1058 -123 44 -328 72 -453 60z m178
-755 l2 -258 258 -2 257 -3 0 -120 0 -120 -257 -3 -258 -2 -2 -258 -3 -257
-120 0 -120 0 -3 257 -2 258 -258 2 -257 3 0 120 0 120 258 3 257 2 0 254 c0
139 3 256 7 260 4 3 59 5 122 4 l116 -3 3 -257z"/>
</g>
</svg>
