<?xml version="1.0" standalone="no"?>
<!DOCTYPE svg PUBLIC "-//W3C//DTD SVG 20010904//EN"
 "http://www.w3.org/TR/2001/REC-SVG-20010904/DTD/svg10.dtd">
<svg version="1.0" xmlns="http://www.w3.org/2000/svg"
 width="225.000000pt" height="225.000000pt" viewBox="0 0 225.000000 225.000000"
 preserveAspectRatio="xMidYMid meet">

<g transform="translate(0.000000,225.000000) scale(0.100000,-0.100000)"
fill="#000000" stroke="none">
<path d="M715 2111 c-285 -71 -516 -305 -579 -588 -21 -93 -21 -253 0 -346 50
-224 208 -423 419 -530 105 -53 173 -69 310 -74 163 -6 246 10 372 72 50 25
95 45 99 45 4 0 135 -127 291 -282 156 -156 285 -284 287 -285 1 -1 50 46 109
105 l108 108 -286 286 c-157 157 -285 289 -285 293 0 4 20 48 45 98 62 126 78
209 72 372 -4 98 -10 146 -27 195 -91 270 -312 475 -577 534 -96 21 -266 20
-358 -3z m287 -262 c85 -17 193 -76 256 -138 64 -63 123 -172 141 -259 73
-353 -248 -674 -601 -601 -230 47 -408 265 -408 499 0 317 302 563 612 499z"/>
</g>
</svg>
