<?xml version="1.0" standalone="no"?>
<!DOCTYPE svg PUBLIC "-//W3C//DTD SVG 20010904//EN"
 "http://www.w3.org/TR/2001/REC-SVG-20010904/DTD/svg10.dtd">
<svg version="1.0" xmlns="http://www.w3.org/2000/svg"
 width="225.000000pt" height="225.000000pt" viewBox="0 0 225.000000 225.000000"
 preserveAspectRatio="xMidYMid meet">

<g transform="translate(0.000000,225.000000) scale(0.100000,-0.100000)"
fill="#000000" stroke="none">
<path d="M1917 1413 c-3 -5 -8 -27 -12 -50 -5 -31 -11 -40 -23 -38 -9 1 -24
-1 -33 -6 -9 -5 -27 -2 -43 7 -16 8 -38 14 -51 14 -12 0 -28 7 -35 15 -18 21
-36 19 -55 -7 l-17 -23 7 23 c4 13 2 22 -4 22 -6 0 -11 -5 -11 -11 0 -5 -6 -7
-12 -3 -17 11 -98 13 -92 2 3 -4 0 -8 -5 -8 -6 0 -11 3 -11 8 0 9 -266 9 -276
-1 -11 -11 -26 -9 -19 3 3 6 1 10 -4 10 -6 0 -11 -4 -11 -9 0 -6 -12 -6 -32 0
-45 13 -71 12 -62 -3 5 -7 3 -8 -7 -2 -8 4 -23 10 -34 11 l-20 3 20 -11 c44
-25 55 -72 39 -171 -6 -32 -11 -38 -30 -38 -23 0 -24 3 -24 75 0 58 -3 77 -15
81 -28 11 -44 -16 -51 -87 -6 -68 -7 -69 -35 -69 -28 0 -28 1 -24 43 14 135
14 145 -1 151 -8 3 -12 10 -9 16 3 5 1 10 -4 10 -6 0 -11 -6 -11 -12 -2 -68
-23 -214 -34 -236 -24 -46 -83 -64 -140 -43 -17 7 -23 15 -19 29 4 17 11 19
50 14 37 -4 49 -1 60 13 20 29 16 33 -30 28 -39 -5 -46 -2 -65 22 -35 44 -21
148 21 161 16 5 17 8 6 15 -18 11 -50 1 -66 -20 -7 -9 -13 -36 -13 -61 0 -25
-3 -62 -6 -82 -6 -33 -10 -38 -34 -38 -21 0 -27 4 -25 18 3 13 13 138 15 175
0 4 12 7 26 7 14 0 23 4 19 9 -6 11 -45 10 -45 -1 0 -4 -3 -7 -7 -7 -23 4 -47
-2 -36 -9 20 -13 -10 -41 -42 -39 -41 3 -41 -16 0 -36 91 -43 19 -155 -77
-118 -20 8 -25 15 -21 31 4 16 11 19 27 14 23 -7 24 -7 44 -5 20 2 14 29 -8
36 -69 22 -66 111 5 128 11 2 1 4 -21 4 -30 -1 -40 -5 -37 -14 3 -7 0 -13 -6
-13 -6 0 -11 5 -11 12 0 9 -3 9 -12 0 -16 -16 -28 -15 -28 2 0 20 -90 27 -98
8 -4 -11 -6 -11 -13 0 -7 10 -9 8 -10 -7 -1 -11 -5 -2 -10 20 -6 34 -7 30 -7
-30 1 -38 -2 -81 -5 -95 -3 -14 -9 -77 -12 -141 -10 -177 -87 -156 652 -184
342 -13 627 -26 633 -30 6 -3 9 -30 8 -60 -1 -30 0 -57 4 -60 3 -4 30 -2 59 4
l54 11 55 -59 55 -58 65 22 c77 26 85 43 40 90 l-32 33 31 10 c36 13 41 38 9
48 -19 6 -15 9 29 26 62 23 59 9 68 306 5 164 3 203 -7 199 -7 -2 -21 0 -30 4
-9 5 -19 6 -21 2z m-1600 -65 c-3 -8 -6 -5 -6 6 -1 11 2 17 5 13 3 -3 4 -12 1
-19z m423 2 c-8 -5 -19 -10 -25 -10 -5 0 -3 5 5 10 8 5 20 10 25 10 6 0 3 -5
-5 -10z m610 0 c13 -8 13 -10 -2 -10 -9 0 -20 5 -23 10 -8 13 5 13 25 0z m76
-29 c-3 -14 -8 -59 -12 -99 l-6 -72 -37 1 c-20 1 -46 -1 -58 -4 -14 -4 -32 2
-48 15 -25 19 -26 25 -23 89 2 38 -1 69 -5 69 -5 0 -2 7 7 15 8 8 25 15 38 15
22 0 23 -2 20 -75 -3 -61 -1 -76 12 -81 29 -11 44 15 51 90 l7 72 30 -4 c25
-4 28 -8 24 -31z m94 19 c0 -7 6 -7 19 0 11 5 33 10 49 10 86 0 93 -152 9
-200 -21 -12 -32 -12 -57 -3 -28 10 -30 10 -30 -10 0 -47 -12 -67 -37 -67
l-25 0 6 93 c12 176 15 187 42 187 13 0 24 -5 24 -10z m377 -82 c-3 -7 -5 -2
-5 12 0 14 2 19 5 13 2 -7 2 -19 0 -25z m-117 -348 c73 -31 82 -40 37 -40 -20
0 -37 -3 -37 -7 0 -4 21 -28 46 -54 l46 -47 -53 -16 c-44 -13 -56 -13 -64 -2
-5 7 -29 34 -52 61 l-43 48 -50 -10 c-53 -11 -65 -5 -56 25 3 9 6 40 7 67 1
28 4 53 6 57 2 4 38 -8 81 -26 42 -18 102 -43 132 -56z"/>
<path d="M1536 1291 c-25 -28 -18 -95 10 -99 30 -4 54 24 54 63 0 24 -6 38
-19 45 -25 13 -25 13 -45 -9z"/>
<path d="M555 1370 c-3 -5 -1 -10 4 -10 6 0 11 5 11 10 0 6 -2 10 -4 10 -3 0
-8 -4 -11 -10z"/>
<path d="M788 1363 c6 -2 18 -2 25 0 6 3 1 5 -13 5 -14 0 -19 -2 -12 -5z"/>
<path d="M842 1352 c8 -10 14 -10 27 0 9 7 17 13 19 14 1 1 -11 1 -27 0 -22
-1 -27 -4 -19 -14z"/>
<path d="M945 1360 c-2 -3 7 -7 20 -8 13 -1 28 -2 32 -3 19 -3 33 2 33 12 0 8
-5 8 -15 -1 -8 -7 -15 -9 -15 -4 0 10 -50 13 -55 4z"/>
<path d="M783 1298 c-29 -37 -19 -98 15 -98 29 0 42 21 42 67 0 39 -2 43 -24
43 -13 0 -28 -6 -33 -12z"/>
</g>
</svg>
